<?xml version="1.0" encoding="utf-8"?>
<!-- Generator: Adobe Illustrator 27.2.0, SVG Export Plug-In . SVG Version: 6.00 Build 0)  -->
<svg version="1.1" xmlns="http://www.w3.org/2000/svg" xmlns:xlink="http://www.w3.org/1999/xlink" x="0px" y="0px"
	 viewBox="0 0 1000 1000" style="enable-background:new 0 0 1000 1000;" xml:space="preserve">
<style type="text/css">
	.st0{fill:#2A623F;}
	
		.st1{clip-path:url(#SVGID_00000146472710057842277210000011175999853143850660_);fill:url(#SVGID_00000034064212881714883730000009757520273314735765_);}
	
		.st2{clip-path:url(#SVGID_00000183233005235011459890000002514623045308672188_);fill:url(#SVGID_00000028309313138194818420000017911047301608368534_);}
	
		.st3{clip-path:url(#SVGID_00000018937836356952299650000008405525013662739131_);fill:url(#SVGID_00000039833183649912777180000001538174646355986103_);}
	
		.st4{clip-path:url(#SVGID_00000177451973365139595160000007659519398495951500_);fill:url(#SVGID_00000049911596665291892440000008214655594039026082_);}
	
		.st5{clip-path:url(#SVGID_00000183233337534035190380000001479429739437525932_);fill:url(#SVGID_00000035532927010344181380000018258398657043245445_);}
	
		.st6{clip-path:url(#SVGID_00000134213649097964944530000013690884824559732896_);fill:url(#SVGID_00000081613417366131414070000010505787493670852531_);}
	
		.st7{clip-path:url(#SVGID_00000098932451509870888960000003534162800972025741_);fill:url(#SVGID_00000130643966704979764400000007756885392594559923_);}
	
		.st8{clip-path:url(#SVGID_00000022521608602086430830000017042997425067803824_);fill:url(#SVGID_00000108297325477720972880000007024464852861610160_);}
	.st9{fill:#B88E3B;}
</style>
<g id="Layer_1">
	<g>
		<path class="st0" d="M795.8,373.6c-44.8-16.6-60.3-36.3-60.3-36.3S720,357,675.2,373.6c-32,11.9-62.8,32.7-62.8,90.9V500v0v35.5
			c0,58.1,30.8,79,62.8,90.9c44.8,16.6,60.3,36.3,60.3,36.3s15.5-19.7,60.3-36.3c32-11.9,62.8-32.7,62.8-90.9V500v0v-35.5
			C858.6,406.4,827.8,385.5,795.8,373.6"/>
	</g>
	<g>
		<defs>
			<path id="SVGID_1_" d="M683.9,602.9c-28.7-10.7-46.5-25.6-46.5-67.4V500v-35.5c0-41.7,17.8-56.7,46.5-67.3
				c19.8-7.4,37.5-16.5,51.6-26.6c14.1,10.1,31.8,19.3,51.6,26.6c28.7,10.7,46.5,25.6,46.5,67.3V500v35.5
				c0,41.7-17.8,56.7-46.5,67.4c-19.8,7.4-37.5,16.5-51.6,26.6C721.4,619.4,703.7,610.2,683.9,602.9 M681.8,391.6
				c-30.2,11.2-50.4,27.9-50.4,72.9v71c0,45,20.1,61.7,50.4,73c25.7,9.5,42.8,20.2,53.6,28.5c10.8-8.3,28-18.9,53.6-28.5
				c30.2-11.2,50.4-27.9,50.4-73v-71c0-45-20.1-61.7-50.4-72.9c-25.7-9.5-42.8-20.2-53.6-28.5C724.7,371.4,707.5,382,681.8,391.6"/>
		</defs>
		<clipPath id="SVGID_00000119810809407264186320000006825826079329402299_">
			<use xlink:href="#SVGID_1_"  style="overflow:visible;"/>
		</clipPath>
		
			<linearGradient id="SVGID_00000067226254948322795470000013986991575267294340_" gradientUnits="userSpaceOnUse" x1="-2199.0024" y1="8715.6533" x2="-2193.1338" y2="8715.6533" gradientTransform="matrix(0 55.6005 -55.6005 0 485330.5 122603.9922)">
			<stop  offset="0" style="stop-color:#BD9340"/>
			<stop  offset="0.502" style="stop-color:#F3E5BB"/>
			<stop  offset="1" style="stop-color:#B88E3B"/>
		</linearGradient>
		
			<rect x="631.5" y="363.1" style="clip-path:url(#SVGID_00000119810809407264186320000006825826079329402299_);fill:url(#SVGID_00000067226254948322795470000013986991575267294340_);" width="208" height="273.8"/>
	</g>
	<g>
		<defs>
			<path id="SVGID_00000094610803192398052020000006860182977228093113_" d="M735.5,402.3L735.5,402.3c-0.1,0-0.2,0-0.2,0.1
				c-0.1,0.2-0.3,0.5-0.3,0.6c-1.2,2.1-2,4.4-2.6,6.9c0,0.2-0.2,0.2-0.4,0.2c-3.3-2.1-7.2-3.3-11.4-3.3c-4.1,0-7.9,1.1-11.2,3
				c-0.2,0.1-0.1,0.4,0.1,0.4c4.8,0.3,9.1,1.8,12.7,4.3c0.2,0.2,0.1,0.5-0.2,0.4c-0.8-0.1-1.7-0.1-2.6-0.1c-12.9-0.1-24,7.2-27.9,17
				c-0.1,0.2,0.2,0.4,0.4,0.3c6.6-5.4,15.8-8.9,26-8.7h0c0.3,0,0.4,0.4,0.1,0.5c-13.7,2.8-24.4,11.8-27.3,23.4
				c-0.1,0.2,0.3,0.4,0.5,0.2c5.6-5.4,13-9.7,21.4-12.4c0.3-0.1,0.5,0.2,0.3,0.4c-8.4,7.7-13.6,17.7-13.7,29.2c0,0.4,0,0.8,0,1.2
				c0,0.2,0.4,0.4,0.5,0.1c3.4-6.9,8.6-13,15.1-18.1c0.2-0.2,0.5,0,0.4,0.3c-1.9,5.1-2.9,10.6-3,16.3c0,4.7,0.6,9.4,1.8,13.9
				c0.1,0.2,0.5,0.3,0.5,0c1.9-9.1,5.9-17.5,11.5-24.9c0.2-0.2,0.5-0.1,0.5,0.2c-1,3.6-1.5,7.2-1.5,11.1c0,6.6,1.4,13,4.1,18.8
				c0.1,0.2,0.5,0.2,0.5-0.1c0.2-2.4,0.5-4.7,1-6.9c0.2,4,0.5,8,0.7,12c0,0.1,0,0.1-0.1,0.1h0c0,0,0,0,0,0c-0.4,0-0.8,0-1.2,0
				c-0.1,0-0.1,0.1-0.1,0.1c0.3,4,0.6,8.1,0.9,12.1c0,0.1,0,0.1-0.1,0.1c-0.1,0-0.2,0-0.2,0c0,0,0,0,0,0c-0.4,0-0.8,0-1.2,0
				c-0.1,0-0.1,0.1-0.1,0.1c0.4,4,0.7,8.1,1.1,12.1c0,0,0,0.1,0,0.1c-0.2,0-0.4,0-0.7,0c0,0-0.1,0-0.1,0c-0.4,0-0.8,0-1.2,0
				c-0.1,0-0.1,0.1-0.1,0.1c0.4,4,0.8,8.1,1.3,12.1c0,0,0,0.1,0,0.1c-0.2,0-0.5,0-0.7,0c0,0-0.1,0-0.1,0c-0.4,0-0.8,0-1.2,0
				c-0.1,0-0.1,0.1-0.1,0.1c0.5,4.1,1.5,11.8,1.5,11.8l6.6,5.2l6.7-4.7c0,0,1-8.2,1.5-12.2c0-0.1-0.1-0.1-0.1-0.1
				c-0.4,0-0.8,0-1.2,0c0,0,0,0-0.1,0c-0.2,0-0.5,0-0.7,0c0,0,0-0.1,0-0.1c0.4-4.1,0.9-8.1,1.3-12.2c0-0.1-0.1-0.1-0.1-0.1
				c-0.4,0-0.8,0-1.2,0c0,0,0,0-0.1,0c-0.2,0-0.5,0-0.7,0c0,0,0-0.1,0-0.1c0.4-4.1,0.7-8.1,1.1-12.2c0-0.1-0.1-0.1-0.1-0.1
				c-0.4,0-0.8,0-1.2,0c0,0,0,0,0,0c-0.1,0-0.2,0-0.3,0c0,0-0.1,0-0.1,0c0.3-4,0.6-8.1,0.9-12.2c0-0.1,0-0.1-0.1-0.1
				c-0.4,0-0.8,0-1.2,0c0,0,0,0,0,0h-0.1c0,0-0.1-0.1-0.1-0.1c0.3-4,0.5-8,0.7-12c0.5,2.3,0.9,4.6,1,6.9c0,0.3,0.4,0.3,0.5,0.1
				c2.7-5.8,4.1-12.2,4.1-18.8c0-3.8-0.5-7.5-1.5-11.1c-0.1-0.3,0.3-0.4,0.5-0.2c5.6,7.4,9.7,15.8,11.5,24.9c0.1,0.2,0.5,0.2,0.5,0
				c1.2-4.5,1.9-9.2,1.8-13.9c-0.1-5.8-1.1-11.2-3-16.4c-0.1-0.2,0.2-0.4,0.4-0.3c6.5,5.1,11.6,11.2,15.1,18.1
				c0.1,0.2,0.5,0.1,0.5-0.1c0-0.4,0-0.8,0-1.3c-0.2-11.5-5.4-21.5-13.7-29.2c-0.2-0.2,0-0.5,0.3-0.4c8.5,2.7,15.8,7,21.4,12.4
				c0.2,0.2,0.5,0,0.5-0.2c-2.9-11.6-13.6-20.7-27.3-23.5c-0.3-0.1-0.3-0.5,0.1-0.5h0c10.2-0.2,19.4,3.3,26,8.7
				c0.2,0.2,0.5,0,0.4-0.3c-3.9-9.8-15-17.1-27.9-17c-0.9,0-1.7,0.1-2.6,0.1c-0.3,0-0.4-0.3-0.2-0.4c3.6-2.5,8-4,12.7-4.3
				c0.3,0,0.3-0.3,0.1-0.4c-3.2-1.9-7.1-3-11.2-3c-4.2,0-8.2,1.2-11.4,3.3c-0.2,0.1-0.4,0-0.4-0.2c-0.5-2.4-1.4-4.7-2.6-6.9
				c-0.1-0.1-0.2-0.4-0.4-0.6C735.7,402.4,735.6,402.3,735.5,402.3L735.5,402.3z"/>
		</defs>
		<clipPath id="SVGID_00000004531524979921512510000011436114467510942600_">
			<use xlink:href="#SVGID_00000094610803192398052020000006860182977228093113_"  style="overflow:visible;"/>
		</clipPath>
		
			<linearGradient id="SVGID_00000134225668210387383930000013840733122935751093_" gradientUnits="userSpaceOnUse" x1="-2199.0024" y1="8715.6533" x2="-2193.1338" y2="8715.6533" gradientTransform="matrix(0 55.6005 -55.6005 0 485330.5 122603.9922)">
			<stop  offset="0" style="stop-color:#BD9340"/>
			<stop  offset="0.502" style="stop-color:#F3E5BB"/>
			<stop  offset="1" style="stop-color:#B88E3B"/>
		</linearGradient>
		
			<rect x="690.7" y="402.3" style="clip-path:url(#SVGID_00000004531524979921512510000011436114467510942600_);fill:url(#SVGID_00000134225668210387383930000013840733122935751093_);" width="89.5" height="140.6"/>
	</g>
	<g>
		<defs>
			<path id="SVGID_00000138538471350271061650000004269287676472324259_" d="M701.9,566.6c-6.7,2.7-11,3.5-13.4,3.6
				c-2.7,0.1-3.8-0.4-4.1-0.6c-0.2-0.5-0.6-0.9-0.9-1.2c0,0-0.4-0.4-1-0.2c-0.2,0.1-0.4,0.2-0.6,0.4c-0.2,0.2-0.3,0.6-0.3,0.9
				c0,0.4,0.2,0.7,0.5,1c0.2,0.1,0.4,0.3,0.6,0.4c0.2,0.1,0.4,0.2,0.7,0.4c0.5,0.2,1,0.4,1.6,0.5c0.6,0.1,1.2,0.2,1.9,0.2
				c0.7,0,1.3,0,2.1,0c1.4-0.1,3-0.4,4.6-0.7c3.3-0.8,6.8-2.1,10.6-3.8c1.3-0.6,2.7-1.2,4.1-1.9c-0.1-0.2-1.2-1.2-1.2-1.3
				C705.2,565.2,703.5,565.9,701.9,566.6"/>
		</defs>
		<clipPath id="SVGID_00000072987485807177267300000011047814679440840887_">
			<use xlink:href="#SVGID_00000138538471350271061650000004269287676472324259_"  style="overflow:visible;"/>
		</clipPath>
		
			<linearGradient id="SVGID_00000012437623507731392520000006245164094142301112_" gradientUnits="userSpaceOnUse" x1="-2199.2344" y1="8716.208" x2="-2193.3657" y2="8716.208" gradientTransform="matrix(0 55.5112 -55.5112 0 484541.5938 122420.6641)">
			<stop  offset="0" style="stop-color:#BD9340"/>
			<stop  offset="0.502" style="stop-color:#F3E5BB"/>
			<stop  offset="1" style="stop-color:#B88E3B"/>
		</linearGradient>
		
			<rect x="681.6" y="564.4" style="clip-path:url(#SVGID_00000072987485807177267300000011047814679440840887_);fill:url(#SVGID_00000012437623507731392520000006245164094142301112_);" width="26.5" height="7.8"/>
	</g>
	<g>
		<defs>
			<path id="SVGID_00000155115241210263804170000002380253817443198080_" d="M704.5,568.9c-3.9,1.6-7.6,2.8-10.9,3.5
				c-0.8,0.2-1.7,0.3-2.5,0.4c-0.8,0.1-1.6,0.2-2.3,0.2c-1.5,0-2.9-0.1-4.1-0.4c-0.6-0.2-1.2-0.4-1.7-0.6c-0.3-0.1-0.5-0.3-0.7-0.4
				c-0.2-0.2-0.4-0.3-0.6-0.5c-0.2-0.2-0.3-0.4-0.4-0.6c-0.1-0.2-0.1-0.5-0.1-0.7c0-0.5,0.2-0.8,0.4-1.1c0.2-0.3,0.5-0.4,0.8-0.5
				c0.2,0,0.3,0,0.5,0c-1.1-0.6-2.4-0.8-3.6-0.2c-3.8,1.6-2.7,5.9-2.2,6.9c1.1,2.4,3.4,4.1,6.6,4.9c1.3,0.3,2.7,0.5,4.2,0.5
				c6.1,0,14.2-2.4,23.8-7c0.4-0.2,0.7-0.4,1.1-0.5h0c0.2-0.1,1.2-0.6,1.2-0.6c-0.4-0.5-1.3-1.5-2.1-2.4c-0.9-1-2.1-2.4-2.7-2.8
				C709.2,566.8,706.1,568.2,704.5,568.9"/>
		</defs>
		<clipPath id="SVGID_00000069398671184399963470000004175287198800869538_">
			<use xlink:href="#SVGID_00000155115241210263804170000002380253817443198080_"  style="overflow:visible;"/>
		</clipPath>
		
			<linearGradient id="SVGID_00000163777684353611936570000000109176270418665859_" gradientUnits="userSpaceOnUse" x1="-2199.0093" y1="8716.2607" x2="-2193.1406" y2="8716.2607" gradientTransform="matrix(0 55.5979 -55.5979 0 485300.3438 122598.5312)">
			<stop  offset="0" style="stop-color:#BD9340"/>
			<stop  offset="0.502" style="stop-color:#F3E5BB"/>
			<stop  offset="1" style="stop-color:#B88E3B"/>
		</linearGradient>
		
			<rect x="675.5" y="566.8" style="clip-path:url(#SVGID_00000069398671184399963470000004175287198800869538_);fill:url(#SVGID_00000163777684353611936570000000109176270418665859_);" width="38.5" height="13.3"/>
	</g>
	<g>
		<defs>
			<path id="SVGID_00000132801806536905662130000005354586457290966702_" d="M757.6,531.3c0.5-0.4,1.1-0.8,1.6-1.2
				c0.5-0.4,1.1-0.8,1.6-1.2c0.5-0.4,1.1-0.8,1.6-1.2c1.1-0.8,2.1-1.5,3.2-2.3c2.1-1.5,4.3-3,6.4-4.4c2.1-1.4,4.3-2.8,6.4-4
				c4.3-2.5,8.6-4.7,12.9-6.2c0.3-0.1,0.5-0.2,0.8-0.3c0.1,0,0.3-0.1,0.4-0.1l0.4-0.1c0.3-0.1,0.5-0.2,0.8-0.3
				c0.3-0.1,0.5-0.2,0.8-0.2c0.1,0,0.3-0.1,0.4-0.1c0.1,0,0.3-0.1,0.4-0.1c0.3-0.1,0.5-0.2,0.8-0.2c0.3-0.1,0.5-0.1,0.8-0.2
				c0.1,0,0.3-0.1,0.4-0.1c0.1,0,0.3-0.1,0.4-0.1c0.3-0.1,0.5-0.1,0.8-0.2c0.3-0.1,0.5-0.1,0.8-0.2c0.1,0,0.3-0.1,0.4-0.1
				c0.1,0,0.3-0.1,0.4-0.1c0.3,0,0.5-0.1,0.8-0.2c1-0.2,2-0.4,3-0.6c2-0.3,3.8-0.6,5.6-0.7c1.8-0.2,3.8-0.1,5.4-0.1
				c1.7,0,3.3,0.2,4.7,0.4c-1.5-0.1-3.2-0.2-5-0.2c-1.6,0-3.3,0.1-5.1,0.3c-1.8,0.2-3.7,0.4-5.6,0.8c-1,0.2-2,0.4-2.9,0.6
				c-0.3,0.1-0.5,0.1-0.8,0.2c-0.1,0-0.2,0.1-0.4,0.1c-0.1,0-0.3,0.1-0.4,0.1c-0.3,0.1-0.5,0.1-0.8,0.2c-0.3,0.1-0.5,0.1-0.8,0.2
				c-0.1,0-0.3,0.1-0.4,0.1c-0.1,0-0.3,0.1-0.4,0.1c-0.3,0.1-0.5,0.2-0.8,0.2c-0.3,0.1-0.5,0.2-0.8,0.2c-0.1,0-0.3,0.1-0.4,0.1
				l-0.4,0.1c-0.3,0.1-0.5,0.2-0.8,0.3c-0.3,0.1-0.5,0.2-0.8,0.3c-0.1,0-0.3,0.1-0.4,0.1c-0.1,0-0.3,0.1-0.4,0.1
				c-0.3,0.1-0.5,0.2-0.8,0.3c-13.7,4.5-30.1,17.5-35.3,21C756.6,532.1,757.1,531.7,757.6,531.3 M808.7,506.1
				c-7.2,0.5-14.8,2.4-22.6,5.7c-9.6,4.1-18.6,10.4-29.4,18.6c-12,9-22.3,17.6-31.9,23.8c-4.7,3.1-9.2,5.7-13.3,7.9
				c-5-5.4-4.2-9-4.2-9c-2.1-1.5-3.7-0.5-3.7-0.5c-3,2.5,0,6.1,3.9,10c0.3,0.3,2.2,2.2,2.2,2.2c0.3,0.3,3.3,3.3,4,4.5
				c0.1,0.1,0.3,0.5,0.4,0.7c3,5.3-0.1,9.3-0.1,9.3c2.5,2.8,3.9,1.6,3.9,1.6c2.8-1.7,2.3-6.2,0-10.4c12.8-6.9,27.8-17.5,44.8-31.6
				c4.1-3.4,8.1-6.4,12.1-9c7.5-5.5,15-9.6,22.1-12.8c12.8-5.9,27-8.3,29.6-8c0.2,0,0.3-0.3,0.1-0.4c-0.1,0-0.1,0-0.2-0.1
				c-0.3-0.1-1.7-0.6-3-1c-3.3-1-6.9-1.4-10.7-1.4C811.3,506,810,506,808.7,506.1"/>
		</defs>
		<clipPath id="SVGID_00000118372493957273061520000009799233203646931882_">
			<use xlink:href="#SVGID_00000132801806536905662130000005354586457290966702_"  style="overflow:visible;"/>
		</clipPath>
		
			<linearGradient id="SVGID_00000062907666897242519990000011736942692966580141_" gradientUnits="userSpaceOnUse" x1="-2200.894" y1="8714.8096" x2="-2195.0251" y2="8714.8096" gradientTransform="matrix(0 54.8842 -54.8842 0 479069.2812 121134.8047)">
			<stop  offset="0" style="stop-color:#BD9340"/>
			<stop  offset="0.502" style="stop-color:#F3E5BB"/>
			<stop  offset="1" style="stop-color:#B88E3B"/>
		</linearGradient>
		
			<rect x="700.5" y="506" style="clip-path:url(#SVGID_00000118372493957273061520000009799233203646931882_);fill:url(#SVGID_00000062907666897242519990000011736942692966580141_);" width="126.3" height="76"/>
	</g>
	<g>
		<defs>
			<path id="SVGID_00000043423986805049727630000010032025976320946089_" d="M762.8,565.7c1.4,0.7,2.8,1.3,4.1,1.9
				c3.8,1.7,7.4,3,10.6,3.8c1.6,0.4,3.2,0.6,4.6,0.7c0.7,0,1.4,0.1,2.1,0c0.7,0,1.3-0.1,1.9-0.2c0.6-0.1,1.1-0.3,1.6-0.5
				c0.2-0.1,0.4-0.2,0.7-0.4c0.2-0.1,0.4-0.3,0.6-0.4c0.3-0.3,0.5-0.7,0.5-1c0-0.4-0.1-0.7-0.3-0.9c-0.2-0.2-0.4-0.4-0.6-0.4
				c-0.6-0.1-1,0.2-1,0.2c-0.4,0.3-0.7,0.7-0.9,1.2c-0.2,0.2-1.3,0.7-4.1,0.6c-2.4-0.1-6.7-0.8-13.4-3.6c-1.6-0.7-3.3-1.4-5-2.2
				C764,564.5,763,565.5,762.8,565.7"/>
		</defs>
		<clipPath id="SVGID_00000119087964347367816380000013600719176317739941_">
			<use xlink:href="#SVGID_00000043423986805049727630000010032025976320946089_"  style="overflow:visible;"/>
		</clipPath>
		
			<linearGradient id="SVGID_00000080924666326732640820000008279892572012913558_" gradientUnits="userSpaceOnUse" x1="-2199.2344" y1="8714.9941" x2="-2193.3657" y2="8714.9941" gradientTransform="matrix(0 55.5112 -55.5112 0 484555.4375 122420.6641)">
			<stop  offset="0" style="stop-color:#BD9340"/>
			<stop  offset="0.502" style="stop-color:#F3E5BB"/>
			<stop  offset="1" style="stop-color:#B88E3B"/>
		</linearGradient>
		
			<rect x="762.8" y="564.4" style="clip-path:url(#SVGID_00000119087964347367816380000013600719176317739941_);fill:url(#SVGID_00000080924666326732640820000008279892572012913558_);" width="26.5" height="7.8"/>
	</g>
	<g>
		<defs>
			<path id="SVGID_00000000920130065028193980000010994254992767757225_" d="M759.1,569.6c-0.8,0.9-1.7,1.9-2.1,2.4
				c0,0,1,0.5,1.2,0.6h0c0.4,0.2,0.8,0.4,1.1,0.5c9.5,4.6,17.7,7,23.8,7c1.5,0,2.9-0.2,4.2-0.5c3.2-0.8,5.5-2.5,6.6-4.9
				c0.5-1,1.6-5.3-2.2-6.9c-1.2-0.6-2.6-0.4-3.7,0.2c0.1,0,0.3,0,0.5,0c0.3,0.1,0.6,0.2,0.8,0.5c0.2,0.3,0.4,0.7,0.4,1.1
				c0,0.2,0,0.5-0.1,0.7c-0.1,0.2-0.2,0.4-0.4,0.6c-0.2,0.2-0.4,0.4-0.6,0.5c-0.2,0.2-0.4,0.3-0.7,0.4c-0.5,0.3-1.1,0.5-1.7,0.6
				c-1.2,0.3-2.6,0.4-4.1,0.4c-0.8,0-1.5-0.1-2.3-0.2c-0.8-0.1-1.6-0.2-2.5-0.4c-3.4-0.7-7-1.9-10.9-3.5c-1.6-0.7-4.7-2.1-4.7-2.1
				C761.2,567.2,759.9,568.5,759.1,569.6"/>
		</defs>
		<clipPath id="SVGID_00000170280209696661122170000013105708852748052616_">
			<use xlink:href="#SVGID_00000000920130065028193980000010994254992767757225_"  style="overflow:visible;"/>
		</clipPath>
		
			<linearGradient id="SVGID_00000008117259999474658290000014709656090316062608_" gradientUnits="userSpaceOnUse" x1="-2199.0093" y1="8715.042" x2="-2193.1406" y2="8715.042" gradientTransform="matrix(0 55.5979 -55.5979 0 485314.0625 122598.5312)">
			<stop  offset="0" style="stop-color:#BD9340"/>
			<stop  offset="0.502" style="stop-color:#F3E5BB"/>
			<stop  offset="1" style="stop-color:#B88E3B"/>
		</linearGradient>
		
			<rect x="757" y="566.8" style="clip-path:url(#SVGID_00000170280209696661122170000013105708852748052616_);fill:url(#SVGID_00000008117259999474658290000014709656090316062608_);" width="38.5" height="13.3"/>
	</g>
	<g>
		<defs>
			<path id="SVGID_00000021080101263901094890000006137085288407850165_" d="M656.4,506.8c1.6,0,3.6-0.1,5.4,0.1
				c1.8,0.1,3.7,0.4,5.6,0.7c1,0.2,2,0.4,3,0.6c0.2,0.1,0.5,0.1,0.8,0.2c0.1,0,0.3,0.1,0.4,0.1c0.1,0,0.3,0.1,0.4,0.1
				c0.3,0.1,0.5,0.1,0.8,0.2c0.3,0.1,0.5,0.1,0.8,0.2c0.1,0,0.2,0.1,0.4,0.1c0.1,0,0.3,0.1,0.4,0.1c0.3,0.1,0.5,0.1,0.8,0.2
				c0.3,0.1,0.5,0.2,0.8,0.2c0.1,0,0.3,0.1,0.4,0.1c0.1,0,0.3,0.1,0.4,0.1c0.3,0.1,0.5,0.2,0.8,0.2c0.3,0.1,0.5,0.2,0.8,0.3l0.4,0.1
				c0.1,0,0.3,0.1,0.4,0.1l0.8,0.3c4.3,1.6,8.6,3.7,12.9,6.2c2.1,1.2,4.3,2.6,6.4,4c2.1,1.4,4.3,2.9,6.4,4.4
				c1.1,0.8,2.1,1.5,3.2,2.3c0.5,0.4,1.1,0.8,1.6,1.2c0.5,0.4,1.1,0.8,1.6,1.2c0.5,0.4,1.1,0.8,1.6,1.2c0.5,0.4,1,0.7,1.5,1.1
				c-5.1-3.5-21.6-16.5-35.3-21c-0.3-0.1-0.5-0.2-0.8-0.3c-0.1-0.1-0.3-0.1-0.4-0.1c-0.1-0.1-0.3-0.1-0.4-0.1
				c-0.3-0.1-0.5-0.2-0.8-0.3c-0.3-0.1-0.5-0.2-0.8-0.3l-0.4-0.1c-0.1,0-0.3-0.1-0.4-0.1c-0.3-0.1-0.5-0.2-0.8-0.2
				c-0.3-0.1-0.5-0.1-0.8-0.2c-0.1,0-0.3-0.1-0.4-0.1c-0.1,0-0.2-0.1-0.4-0.1c-0.3-0.1-0.5-0.1-0.8-0.2c-0.3-0.1-0.5-0.1-0.8-0.2
				c-0.1,0-0.3-0.1-0.4-0.1c-0.1,0-0.3-0.1-0.4-0.1c-0.3-0.1-0.5-0.1-0.8-0.2c-1-0.2-2-0.4-3-0.6c-1.9-0.4-3.8-0.6-5.6-0.8
				c-1.8-0.2-3.5-0.2-5.1-0.3c-1.8,0-3.5,0.1-5,0.2C653.1,507,654.6,506.8,656.4,506.8 M647.6,507.4c-1.3,0.4-2.7,0.9-3,1
				c-0.1,0-0.1,0-0.2,0.1c-0.2,0.1-0.1,0.4,0.1,0.4c2.6-0.3,16.8,2.2,29.6,8c7.1,3.3,14.6,7.4,22.1,12.8c4,2.6,8,5.6,12.1,9
				c17,14.1,32.1,24.7,44.8,31.6c-2.3,4.2-2.8,8.7,0,10.4c0,0,1.5,1.3,3.9-1.6c0,0-3.1-4-0.1-9.3c0.1-0.1,0.3-0.6,0.4-0.7
				c0.7-1.2,3.6-4.2,4-4.5c0,0,1.9-1.9,2.2-2.2c3.9-3.9,6.9-7.5,3.9-10c0,0-1.6-1-3.7,0.5c0,0,0.9,3.5-4.2,9
				c-4.1-2.2-8.6-4.8-13.3-7.9c-9.6-6.2-19.9-14.7-31.9-23.8c-10.8-8.2-19.8-14.5-29.4-18.6c-7.8-3.3-15.4-5.2-22.6-5.7
				c-1.3-0.1-2.7-0.1-4-0.1C654.5,506,650.9,506.4,647.6,507.4"/>
		</defs>
		<clipPath id="SVGID_00000168105591537389834300000000560108396374342547_">
			<use xlink:href="#SVGID_00000021080101263901094890000006137085288407850165_"  style="overflow:visible;"/>
		</clipPath>
		
			<linearGradient id="SVGID_00000113344407356985618910000015779636727669310379_" gradientUnits="userSpaceOnUse" x1="-2200.894" y1="8715.6553" x2="-2195.0251" y2="8715.6553" gradientTransform="matrix(0 54.8842 -54.8842 0 479059.4062 121134.8047)">
			<stop  offset="0" style="stop-color:#BD9340"/>
			<stop  offset="0.502" style="stop-color:#F3E5BB"/>
			<stop  offset="1" style="stop-color:#B88E3B"/>
		</linearGradient>
		
			<rect x="644.2" y="506" style="clip-path:url(#SVGID_00000168105591537389834300000000560108396374342547_);fill:url(#SVGID_00000113344407356985618910000015779636727669310379_);" width="126.3" height="76"/>
	</g>
	<g>
		<path class="st0" d="M224.9,401.2c2.6,0,4.9-0.8,6.6-2.5c1.7-1.7,2.6-3.9,2.6-6.4c0-2.6-0.9-4.8-2.6-6.6c-1.8-1.7-4-2.5-6.6-2.5
			c-2.5,0-4.6,0.8-6.3,2.5c-1.7,1.8-2.6,4-2.6,6.6c0,2.5,0.9,4.7,2.6,6.4C220.3,400.4,222.4,401.2,224.9,401.2"/>
		<path class="st0" d="M351,401.2c2.6,0,4.9-0.8,6.6-2.5c1.7-1.7,2.6-3.9,2.6-6.4c0-2.6-0.9-4.8-2.6-6.6c-1.8-1.7-4-2.5-6.6-2.5
			c-2.5,0-4.6,0.8-6.3,2.5c-1.7,1.8-2.6,4-2.6,6.6c0,2.5,0.9,4.7,2.6,6.4C346.4,400.4,348.5,401.2,351,401.2"/>
		<path class="st0" d="M370.3,401.2c2.6,0,4.9-0.8,6.6-2.5c1.7-1.7,2.6-3.9,2.6-6.4c0-2.6-0.9-4.8-2.6-6.6c-1.8-1.7-4-2.5-6.6-2.5
			c-2.5,0-4.6,0.8-6.3,2.5c-1.7,1.8-2.6,4-2.6,6.6c0,2.5,0.9,4.7,2.6,6.4C365.7,400.4,367.8,401.2,370.3,401.2"/>
		<path class="st0" d="M462.6,491.5h-31.5v-19.5c0-7.8,2.5-13.8,7.4-18.2c1.3-1.1,3-2.2,5-3.3c2.8-1.4,5.8-2.4,8.9-3l10.2-2.1V491.5
			z M479.9,419.4c-2.4,1.5-10.5,5.6-33,10.4c-8.8,1.9-16.3,5.5-22.4,11.6c-7.7,7.7-11.6,17.8-11.6,30.1v37.4c0,0.4,0.3,0.6,0.6,0.6
			h49.1c0,9.9-8,18-18,18h-29.8c-0.3,0-0.5,0.3-0.4,0.6l6.8,16.7c0.2,0.5,0.7,0.9,1.3,0.9l22.3,0c19.9,0,36-16.2,36-36v-89.7
			C480.8,419.4,480.3,419.1,479.9,419.4"/>
		<path class="st0" d="M376.5,491.5H345v-19.5c0-7.8,2.5-13.8,7.4-18.2c1.3-1.1,3-2.2,5-3.3c2.8-1.4,5.8-2.4,8.9-3l10.2-2.1V491.5z
			 M393.8,419.4c-2.4,1.5-10.5,5.6-33,10.4c-8.8,1.9-16.3,5.5-22.4,11.6c-7.7,7.7-11.6,17.8-11.6,30.1v19.9h-31.6V383.6
			c0-0.3-0.3-0.6-0.6-0.4l-17.1,6.2c-0.2,0.1-0.3,0.2-0.3,0.4V509c0,0.3,0.2,0.5,0.5,0.5h49.8h49.1h17.5c0.3,0,0.6-0.2,0.6-0.6v-3.7
			v-85.5C394.7,419.4,394.2,419.1,393.8,419.4"/>
		<path class="st0" d="M240.8,491.5h-30.1h-1.4v-19.5c0-7.8,2.5-13.8,7.4-18.2c1.3-1.1,3-2.2,5-3.3c2.8-1.4,5.8-2.4,8.9-3l10.2-2.1
			V491.5z M258.1,419.4c-2.4,1.5-10.5,5.6-33,10.4c-8.8,1.9-16.3,5.5-22.4,11.6c-7.7,7.7-11.6,17.8-11.6,30.1v19.9h-13.3h-2.7
			c-3.2-0.4-6.2-1.6-8.8-3.7c-4.5-3.6-6.7-9-6.7-16.3v-33.8c0-0.3-0.3-0.5-0.5-0.4l-17.5,4.9c-0.2,0.1-0.3,0.2-0.3,0.4v31.9
			c0,11.3,3.6,20.2,10.9,26.7c5.5,4.9,11.6,7.7,18.6,8.3h5.6h44.2h37.8c0.3,0,0.5-0.2,0.5-0.5v-89.1
			C259,419.4,258.5,419.1,258.1,419.4"/>
		<path class="st0" d="M516.3,387.4l-17.1,6.2c-0.2,0.1-0.3,0.2-0.3,0.4V509c0,0.3,0.2,0.6,0.5,0.6h17c0.3,0,0.6-0.2,0.6-0.6V387.8
			C516.9,387.5,516.6,387.3,516.3,387.4"/>
		<path class="st0" d="M499.4,388.1l17.3-6.6c0.1-0.1,0.2-0.2,0.2-0.4v-6.8c0-0.3-0.3-0.5-0.5-0.4l-17.3,6.6
			c-0.1,0.1-0.2,0.2-0.2,0.4v6.8C498.9,388,499.1,388.2,499.4,388.1"/>
		<path class="st0" d="M516.9,358.3v6.9c0,0.3-0.1,0.6-0.4,0.7c-1,0.7-3.9,2.6-6.5,3.3c-6.1,1.7-5,8.8-0.8,7.5c4-1.2-7,7.7-6.8,7.6
			c0.2-0.1,0.4-3.3,0.4-3.3s-3.9-2.7-3.9-6.8c0-4.1,2.2-8.6,10-11.2c4.9-1.6,6.9-3.8,7.7-4.9C516.7,358,516.9,358.1,516.9,358.3"/>
		<path class="st9" d="M213.7,568.5c0.8,0,1.4-0.2,1.9-0.7c0.5-0.5,0.7-1.1,0.7-1.8c0-0.7-0.2-1.4-0.7-1.9c-0.5-0.5-1.1-0.7-1.9-0.7
			c-0.7,0-1.3,0.2-1.8,0.7c-0.5,0.5-0.7,1.1-0.7,1.9c0,0.7,0.2,1.3,0.7,1.8C212.4,568.3,213,568.5,213.7,568.5"/>
		<path class="st9" d="M207.3,568.5c0.7,0,1.4-0.2,1.9-0.7c0.5-0.5,0.7-1.1,0.7-1.8c0-0.7-0.2-1.4-0.7-1.9c-0.5-0.5-1.1-0.7-1.9-0.7
			c-0.7,0-1.3,0.2-1.8,0.7c-0.5,0.5-0.7,1.1-0.7,1.9c0,0.7,0.2,1.3,0.7,1.8C206,568.3,206.6,568.5,207.3,568.5"/>
		<path class="st9" d="M275.3,582c0,3.4-0.7,5.8-2.1,7.2c-0.8,0.8-1.9,1.2-3.3,1.2H269h-0.5h-1.2v-34.1l-4.3,2.2v31.9h-6.4v-18.6
			l-4.3,2.2v16.4H251c-0.6,0-1.5-0.4-2.7-1.2l-2.9,3.2c1.7,1.5,3.6,2.3,5.6,2.3h17.6h0.5h0.7c2.5,0,4.6-0.8,6.3-2.3
			c2.3-2.2,3.5-5.7,3.5-10.4v-25.7l-4.3,2.2V582z"/>
		<path class="st9" d="M303.9,568.5c0.7,0,1.4-0.2,1.9-0.7c0.5-0.5,0.8-1.1,0.8-1.8c0-0.7-0.3-1.4-0.8-1.8c-0.5-0.5-1.1-0.7-1.9-0.7
			c-0.7,0-1.3,0.2-1.8,0.7c-0.5,0.5-0.7,1.1-0.7,1.8c0,0.7,0.2,1.3,0.7,1.8C302.6,568.3,303.1,568.5,303.9,568.5"/>
		<path class="st9" d="M310.8,568.5c0.7,0,1.4-0.2,1.9-0.7c0.5-0.5,0.7-1.1,0.7-1.8c0-0.7-0.2-1.4-0.7-1.8c-0.5-0.5-1.1-0.7-1.9-0.7
			c-0.7,0-1.3,0.2-1.8,0.7c-0.5,0.5-0.7,1.1-0.7,1.8c0,0.7,0.2,1.3,0.7,1.8C309.5,568.3,310.1,568.5,310.8,568.5"/>
		<path class="st9" d="M336.8,590.1h-10.6v-12c0,0,5.1-0.3,8.2,2.7c1.5,1.5,2.5,4.4,2.5,6.9V590.1z M311.9,590.1h-10.6v-2.4
			c0-2.5,1-5.4,2.5-6.9c3-3,8.1-2.7,8.1-2.7V590.1z M341.1,588c0-3.5,0.4-6.9-2.9-10.2c-2.2-2.2-6.2-3.2-9-3.6
			c-2.4-0.4-4.7-1.1-6.9-2.1l-0.4-0.2v18.6h-5.7v-18.6l-0.4,0.2c-2.2,1-4.5,1.8-6.9,2.1c-2.8,0.4-6.7,1.4-9,3.6
			c-3.3,3.3-3,6.7-3,10.2v6.7h0.4H341h0v-1.2l0.1-3h-0.1V588z"/>
		<path class="st9" d="M383.9,582c0,3.4-0.7,5.8-2.1,7.2c-0.8,0.8-1.9,1.2-3.3,1.2h-0.9h-0.5h-14.5H362v-2.3c0-2.5,0.6-5.7,2.1-7.2
			c3-3,12.4-2.7,12.4-2.7v-6.4l-0.4,0.2c-2.2,1-4.5,1.8-6.9,2.1c-2.7,0.4-6.7,1.4-8.9,3.6c-3.3,3.3-2.9,7.1-2.9,10.6v2.2h-2.8h-0.4
			h-3.5v-33.7l-4.3,2.2v35.8h7.7h0.5h22.6h0.4h0.8c2.5,0,4.6-0.8,6.3-2.3c2.4-2.2,3.5-5.7,3.5-10.4v-25.8l-4.3,2.2V582z"/>
		<polygon class="st9" points="392.9,594.7 397.2,594.7 397.2,556.2 392.9,558.4 		"/>
		<path class="st9" d="M418.8,568.5c0.7,0,1.4-0.2,1.9-0.7c0.5-0.5,0.8-1.1,0.8-1.8c0-0.7-0.2-1.4-0.8-1.8c-0.5-0.5-1.1-0.7-1.9-0.7
			c-0.7,0-1.3,0.2-1.8,0.7c-0.5,0.5-0.7,1.1-0.7,1.8c0,0.7,0.2,1.3,0.7,1.8C417.5,568.3,418,568.5,418.8,568.5"/>
		<path class="st9" d="M425.7,568.5c0.7,0,1.4-0.2,1.9-0.7c0.5-0.5,0.7-1.1,0.7-1.8c0-0.7-0.2-1.4-0.7-1.8c-0.5-0.5-1.1-0.7-1.9-0.7
			c-0.7,0-1.3,0.2-1.8,0.7c-0.5,0.5-0.7,1.1-0.7,1.8c0,0.7,0.2,1.3,0.7,1.8C424.4,568.3,425,568.5,425.7,568.5"/>
		<path class="st9" d="M455.9,598.8c-0.7,0-1.3,0.2-1.8,0.7c-0.5,0.5-0.7,1.1-0.7,1.9c0,0.7,0.2,1.3,0.7,1.8
			c0.5,0.5,1.1,0.7,1.8,0.7c0.7,0,1.4-0.2,1.9-0.7c0.5-0.5,0.8-1.1,0.8-1.8c0-0.8-0.2-1.4-0.8-1.9
			C457.3,599,456.7,598.8,455.9,598.8"/>
		<path class="st9" d="M462.9,598.8c-0.7,0-1.3,0.2-1.8,0.7c-0.5,0.5-0.7,1.1-0.7,1.9c0,0.7,0.2,1.3,0.7,1.8
			c0.5,0.5,1.1,0.7,1.8,0.7c0.7,0,1.4-0.2,1.9-0.7c0.5-0.5,0.7-1.1,0.7-1.8c0-0.8-0.2-1.4-0.7-1.9
			C464.2,599,463.6,598.8,462.9,598.8"/>
		<path class="st9" d="M484.3,590.4h-5.4v-1c0-1,0-2.1,0.4-3c0.5-1.2,1.9-1.9,3.1-1.5c1.8,0.6,1.9,2.8,1.9,4.3v0.3V590.4z
			 M426.2,590.1h-10.6v-3.4c0-2.5,1-4.3,2.5-5.8c3-3,8.2-2.7,8.2-2.7V590.1z M503.6,582c0,3.4-0.7,5.8-2.1,7.2
			c-0.8,0.8-1.9,1.2-3.3,1.2h-0.9h-0.4h-0.8v-3.5c0-3.5,0.4-5.8-3-9.2c-2.2-2.2-6.2-3.2-8.9-3.6c-2.4-0.4-4.7-1.1-6.9-2.1l-0.4-0.2
			v6.4h4.3c0,0,5.1-0.3,8.2,2.7c1.5,1.5,2.5,3.3,2.5,5.8v3.7H491h-2.5v-1c0-3.4-0.8-5.8-2.4-7.3c-1.3-1.2-2.8-1.8-4.5-1.8
			c-1.7,0-3.3,0.6-4.5,1.8c-1.6,1.5-2.4,3.9-2.4,7.3v1h-4.7h-0.4h-4.3v-18.6L461,574v16.4h-8.8h-0.4h-4.2v-18.6l-4.3,2.2v16.4h-12.8
			v-18.6l-0.4,0.2c-2.2,1-4.5,1.8-6.9,2.1c-2.7,0.4-6.7,1.4-9,3.6c-3.3,3.3-2.9,6.7-2.9,10.2v6.7h40.5h0.4h17.2h0.4h27h0.5h0.7
			c2.6,0,4.6-0.8,6.3-2.3c2.3-2.2,3.5-5.7,3.5-10.4v-25.3l-4.3,2.2V582z"/>
		<polygon class="st9" points="512.7,558.9 512.7,594.7 516.9,594.7 516.9,556.7 		"/>
		<path class="st9" d="M214.7,590.1H204v-3.4c0-2.5,1-4.3,2.5-5.8c3-3,8.2-2.7,8.2-2.7V590.1z M218.9,571.8l-0.4,0.2
			c-2.2,1-4.5,1.8-6.9,2.2c-2.8,0.4-6.7,1.4-9,3.6c-3.3,3.3-2.9,5.7-2.9,9.2v3.5H192v-33.8l-4.3,2.2v35.8H219l0-2.1V571.8z"/>
		<path class="st9" d="M237.3,590.1h-10.6v-3.4c0-2.5,1-4.3,2.5-5.8c3-3,8.1-2.7,8.1-2.7V590.1z M234.3,574.1
			c-2.8,0.4-6.7,1.4-9,3.6c-3.3,3.3-2.9,5.7-2.9,9.2v7.7h14.9v3.9c0,1.3-0.4,2.4-1.2,3.2c-0.9,0.9-2.3,1.4-4.1,1.4h-4.6l2.2,4.3h2.4
			c3.1,0,5.6-0.9,7.3-2.8c1.5-1.7,2.3-3.7,2.3-6c0-0.2,0-0.3,0-0.5v-3.5h0v-22.8l-0.4,0.2C239,573,236.7,573.8,234.3,574.1"/>
		<path class="st9" d="M177.5,590.1h-10.6v-3.4c0-2.5,1-4.3,2.5-5.8c3-3,8.2-2.7,8.2-2.7V590.1z M174.5,574.1
			c-2.8,0.4-6.7,1.4-8.9,3.6c-3.3,3.3-3,5.7-3,9.2v3.5h-12c-0.9-0.1-1.7-0.5-2.5-1c-1.3-1-1.9-2.5-1.9-4.6v-10l-4.3,2.2v7.7
			c0,3.2,1,5.7,3.1,7.5c1.5,1.4,3.3,2.2,5.2,2.4h12.6v-0.1h18.9v-22.8l-0.4,0.2C179.2,573,176.9,573.8,174.5,574.1"/>
		<path class="st9" d="M173,568.5c0.7,0,1.4-0.2,1.9-0.7c0.5-0.5,0.7-1.1,0.7-1.8c0-0.7-0.2-1.4-0.7-1.9c-0.5-0.5-1.1-0.7-1.9-0.7
			c-0.7,0-1.3,0.2-1.8,0.7c-0.5,0.5-0.7,1.1-0.7,1.9c0,0.7,0.2,1.3,0.7,1.8C171.7,568.3,172.3,568.5,173,568.5"/>
		<path class="st9" d="M442.8,564.3h6.4c0.2-0.5,0.5-1.2,0.7-1.7h-2.5c-1.2,0-2-0.8-2-2.1c0-1.2,0.7-2.2,2-2.2
			c0.7,0,1.2,0.2,1.6,0.4c0.2-0.5,0.3-1,0.4-1.5c-0.5-0.3-1.3-0.5-2.1-0.5c-2.4,0-3.9,1.6-3.9,3.9c0,0.8,0.3,1.4,0.6,2h-2.1
			L442.8,564.3z"/>
		<path class="st9" d="M250.3,564.3h6.4c0.2-0.5,0.5-1.2,0.7-1.7h-2.5c-1.2,0-2-0.8-2-2.1c0-1.2,0.7-2.2,2-2.2
			c0.7,0,1.2,0.2,1.6,0.4c0.2-0.5,0.3-1,0.4-1.5c-0.5-0.3-1.3-0.5-2.1-0.5c-2.4,0-3.9,1.6-3.9,3.9c0,0.8,0.3,1.4,0.6,2h-2.1
			L250.3,564.3z"/>
		<path class="st9" d="M154.1,628.4h-3.4c-0.4,0-0.5,0-0.5-0.5v-0.8c0-0.2,0.2-0.2,0.5-0.2h5.4c0.5,0,0.5,0.2,0.5,0.5v5.3
			c0,0.9,0,1-0.3,1.4c-0.8,1.1-2.8,2-5.5,2c-6.1,0-8.7-4.4-8.7-9.2c0-5.4,3.3-9.2,8.3-9.2c4.2,0,6.3,2.5,6.3,3.8
			c0,0.8-0.6,1.2-1.2,1.2c-0.7,0-1-0.5-1.5-1.3c-0.5-0.7-1.5-2.1-3.7-2.1c-2.8,0-5.6,2.3-5.6,7.3c0,4.5,2.2,8,6.2,8
			c0.9,0,2-0.2,2.6-0.6c0.7-0.4,0.7-1,0.7-1.7V628.4z"/>
		<path class="st9" d="M162.9,627.2v6.9h6.8c0.3,0,0.5,0,0.5,0.4v0.8c0,0.4-0.2,0.4-0.5,0.4H161c-0.4,0-0.5,0-0.5-0.5v-16.7
			c0-0.4,0.1-0.6,0.5-0.6h8.7c0.3,0,0.5,0,0.5,0.4c0,0.3,0,0.9,0,1c0,0.2-0.1,0.3-0.5,0.3h-6.8v6.1h5.7c0.3,0,0.5,0,0.5,0.4
			c0,0.3,0,0.9,0,1c0,0.2-0.2,0.2-0.5,0.2H162.9z"/>
		<path class="st9" d="M185.6,631.4v-13c0-0.3,0.1-0.4,0.3-0.5h1.3c0.3,0,0.4,0.1,0.4,0.5v16.8c0,0.4-0.1,0.5-0.4,0.5h-0.9
			c-0.3,0-0.3-0.1-0.6-0.4l-10-13.9v13.8c0,0.3,0,0.4-0.2,0.5c-0.1,0-0.9,0-1.3,0c-0.4,0-0.4-0.1-0.4-0.5v-16.8
			c0-0.4,0.1-0.5,0.5-0.5h1.5c0.3,0,0.3,0,0.6,0.4L185.6,631.4z"/>
		<path class="st9" d="M194.4,627.2v6.9h6.8c0.3,0,0.5,0,0.5,0.4v0.8c0,0.4-0.2,0.4-0.5,0.4h-8.7c-0.4,0-0.5,0-0.5-0.5v-16.7
			c0-0.4,0.1-0.6,0.5-0.6h8.7c0.3,0,0.5,0,0.5,0.4c0,0.3,0,0.9,0,1c0,0.2-0.1,0.3-0.4,0.3h-6.8v6.1h5.7c0.3,0,0.5,0,0.5,0.4
			c0,0.3,0,0.9,0,1c0,0.2-0.2,0.2-0.4,0.2H194.4z"/>
		<path class="st9" d="M207.4,626.5c1.5,0,1.6,0,2,0c2.2-0.2,3.7-1.4,3.7-3.7c0-3.6-3.1-3.6-4.1-3.6c-0.7,0-1.1,0.1-1.6,0.1V626.5z
			 M205,618.9c0-0.5,0.1-0.7,0.4-0.8c0.6-0.2,2.6-0.4,3.9-0.4c1.4,0,3.5,0.1,4.8,1.3c0.3,0.2,1.5,1.3,1.5,3.5c0,2.4-1.6,4.1-4.4,4.8
			l5.1,7.6c0.1,0.2,0.2,0.3,0.2,0.5c0,0.3-0.3,0.3-0.4,0.3h-1.8c-0.5,0-0.5,0-0.7-0.4l-4.2-6.7c-0.2-0.4-0.6-0.9-1.3-0.9
			c-0.7,0-0.7,0.6-0.7,0.9v6.6c0,0.4-0.1,0.5-0.5,0.5h-1.5c-0.4,0-0.5,0-0.5-0.4V618.9z"/>
		<path class="st9" d="M338.6,626.7c1.5,0,1.6,0,2,0c2.2-0.2,3.7-1.4,3.7-3.7c0-3.6-3.1-3.6-4.1-3.6c-0.7,0-1.1,0-1.6,0.1V626.7z
			 M336.1,619.1c0-0.5,0.1-0.7,0.4-0.8c0.5-0.2,2.6-0.4,3.9-0.4c1.4,0,3.5,0.1,4.8,1.3c0.3,0.2,1.5,1.3,1.5,3.5
			c0,2.4-1.6,4.1-4.4,4.8l5.1,7.6c0.1,0.2,0.2,0.3,0.2,0.5c0,0.3-0.3,0.3-0.4,0.3h-1.8c-0.5,0-0.5,0-0.7-0.4l-4.2-6.7
			c-0.2-0.4-0.6-0.9-1.3-0.9c-0.7,0-0.7,0.6-0.7,0.9v6.6c0,0.4-0.1,0.5-0.5,0.5h-1.4c-0.4,0-0.5,0-0.5-0.4V619.1z"/>
		<path class="st9" d="M422.5,626.9c1.5,0,1.6,0,2,0c2.2-0.2,3.7-1.4,3.7-3.7c0-3.6-3.1-3.6-4.1-3.6c-0.7,0-1.1,0-1.6,0.1V626.9z
			 M420.1,619.3c0-0.5,0.1-0.7,0.4-0.8c0.6-0.2,2.6-0.4,3.9-0.4c1.4,0,3.5,0.1,4.8,1.3c0.3,0.2,1.5,1.3,1.5,3.5
			c0,2.4-1.6,4.1-4.4,4.8l5.1,7.6c0.1,0.2,0.2,0.3,0.2,0.5c0,0.3-0.3,0.3-0.4,0.3h-1.8c-0.5,0-0.5,0-0.7-0.4l-4.2-6.7
			c-0.2-0.4-0.6-0.9-1.3-0.9c-0.7,0-0.7,0.6-0.7,0.9v6.6c0,0.4-0.1,0.5-0.5,0.5h-1.5c-0.4,0-0.5,0-0.5-0.4V619.3z"/>
		<path class="st9" d="M226.9,627.3l-2.2-6l-2.2,6H226.9z M227.4,628.7H222l-2.4,6.6c-0.2,0.4-0.2,0.4-0.6,0.4h-1.2
			c-0.2,0-0.4,0-0.4-0.2l0.1-0.4l6.5-16.7c0.1-0.3,0.2-0.4,0.5-0.4h1.1c0.2,0,0.2,0,0.3,0.3l6.5,16.8c0.1,0.2,0.1,0.3,0.1,0.4
			c0,0.2-0.2,0.2-0.4,0.2h-1.7c-0.4,0-0.5,0-0.6-0.4L227.4,628.7z"/>
		<path class="st9" d="M262.1,627.5l-2.2-6l-2.2,6H262.1z M262.6,629h-5.4l-2.4,6.6c-0.2,0.4-0.2,0.4-0.6,0.4H253
			c-0.2,0-0.4,0-0.4-0.2l0.1-0.4l6.5-16.7c0.1-0.3,0.2-0.4,0.5-0.4h1.1c0.2,0,0.2,0.1,0.3,0.3l6.5,16.8c0.1,0.2,0.1,0.3,0.1,0.4
			c0,0.2-0.2,0.2-0.4,0.2h-1.7c-0.4,0-0.5,0-0.6-0.4L262.6,629z"/>
		<path class="st9" d="M237.3,634h6.6c0.4,0,0.4,0.1,0.4,0.5v1c-0.1,0.2-0.2,0.2-0.5,0.2h-8.6c-0.4,0-0.4-0.2-0.4-0.4v-16.9
			c0-0.4,0.1-0.4,0.4-0.5h1.6c0.4,0,0.4,0.1,0.5,0.5V634z"/>
		<path class="st9" d="M299.1,618.2h-5.8h-1.6h-6c-0.2,0-0.4,0-0.5,0.2v1c0,0.3,0.1,0.5,0.4,0.5h5.6v15.6c0,0.4,0.1,0.4,0.4,0.5h0
			h1.6h0c0.3,0,0.4,0,0.4-0.5v-15.6h5.4c0.4,0,0.4-0.1,0.4-0.5v-1C299.5,618.2,299.3,618.2,299.1,618.2"/>
		<path class="st9" d="M368,618.2h-5.8h-1.6h-6c-0.2,0-0.4,0-0.4,0.2v1c0,0.3,0,0.5,0.4,0.5h5.6v15.6c0,0.4,0.1,0.4,0.4,0.5h0h1.6h0
			c0.3,0,0.4,0,0.4-0.5v-15.6h5.4c0.4,0,0.4-0.1,0.4-0.5v-1C368.4,618.2,368.3,618.2,368,618.2"/>
		<path class="st9" d="M303.1,634.1c0.5-0.3,1-0.6,1.5-0.8v-14.6c0-0.4-0.1-0.5-0.5-0.5h-1.6c-0.3,0-0.4,0-0.4,0.5v16
			C302.5,634.5,302.8,634.3,303.1,634.1"/>
		<path class="st9" d="M303.6,620.1c-0.5,0.3-1,0.6-1.5,0.8v14.6c0,0.4,0.1,0.5,0.4,0.5h1.6c0.3,0,0.4,0,0.4-0.5v-16
			C304.3,619.7,304,619.9,303.6,620.1"/>
		<path class="st9" d="M314.2,634.1c0.5-0.3,1-0.6,1.5-0.8v-14.6c0-0.4-0.1-0.5-0.5-0.5h-1.6c-0.3,0-0.4,0-0.4,0.5v16
			C313.5,634.5,313.8,634.3,314.2,634.1"/>
		<path class="st9" d="M314.6,620.1c-0.5,0.3-1,0.6-1.5,0.8v14.6c0,0.4,0.1,0.5,0.5,0.5h1.6c0.3,0,0.4,0,0.4-0.5v-16
			C315.3,619.7,315,619.9,314.6,620.1"/>
		<path class="st9" d="M312.7,627.6H304c-0.1,0.4-0.1,0.8,0,1.2h8.7c1,0,1.1-0.1,1.1-0.3v-0.7C313.7,627.6,313.3,627.6,312.7,627.6"
			/>
		<path class="st9" d="M352.1,635.5c0,0.5-0.1,0.5-0.5,0.5h-1.5c-0.3,0-0.5-0.1-0.5-0.5v-16.7c0-0.4,0.1-0.5,0.5-0.5h1.5
			c0.4,0,0.5,0.1,0.5,0.5V635.5z"/>
		<path class="st9" d="M377.1,635.5c0,0.5-0.1,0.5-0.5,0.5h-1.5c-0.3,0-0.5-0.1-0.5-0.5V628c0-0.4,0.1-0.5,0.5-0.5h1.5
			c0.3,0,0.5,0,0.5,0.5V635.5z"/>
		<path class="st9" d="M392.7,627.5v8c0,0.5-0.2,0.5-0.5,0.5h-1.4c-0.4,0-0.5,0-0.5-0.5v-16.7c0-0.4,0.1-0.6,0.5-0.6h8.7
			c0.4,0,0.5,0,0.5,0.4c0,0.4,0,0.9,0,1c0,0.2,0,0.4-0.5,0.3h-6.6v6.1h5.6c0.4,0,0.5,0,0.5,0.4c0,0.3,0,0.8,0,0.9
			c0,0.2-0.2,0.3-0.5,0.3H392.7z"/>
		<path class="st9" d="M408.1,619.4c-0.8,0-1.6,0.2-2.3,0.6c-2.3,1.4-3.1,4.1-3.1,7c0,1,0.1,1.8,0.3,2.6c0.7,3.3,2.9,5.1,5.2,5.1
			c1.4,0,3.1-0.7,4.1-2.4c1.2-1.9,1.3-4.2,1.2-5.6C413.4,620.7,410,619.4,408.1,619.4 M408.2,636.4c-4.6,0-8.1-3.8-8.1-9.2
			c0-4.5,2.5-9.3,8.1-9.3c5.1,0,7.7,4.4,7.9,8.7C416.4,632.1,413,636.4,408.2,636.4"/>
		<path class="st9" d="M325.9,619.4c-0.8,0-1.6,0.2-2.3,0.6c-2.3,1.4-3.1,4.1-3.1,7c0,1,0.1,1.8,0.3,2.6c0.7,3.3,2.9,5.1,5.2,5.1
			c1.4,0,3.1-0.7,4.1-2.4c1.2-1.9,1.3-4.2,1.2-5.6C331.1,620.7,327.7,619.4,325.9,619.4 M325.9,636.4c-4.6,0-8.1-3.8-8.1-9.2
			c0-4.5,2.5-9.3,8.1-9.3c5.1,0,7.7,4.4,7.9,8.7C334.1,632.1,330.7,636.4,325.9,636.4"/>
		<path class="st9" d="M282.6,629.9L282.6,629.9v-3.8v-3.8v-3.7c0-0.3-0.1-0.3-0.4-0.3h-1.6c-0.3,0-0.4,0-0.4,0.3v3.8v3.8v3.1
			c0,0,0,0,0,0c0,0.1,0,0.2,0,0.3c0,0.9,0,2.6-1,3.9c-0.9,1.2-2.3,1.7-3.5,1.7c-1.9,0-3.8-1.2-4.3-3.5c-0.1-0.6-0.2-1.1-0.2-1.8v0v0
			v-3.6v-3.8v-3.7c0-0.3-0.1-0.3-0.4-0.3H269c-0.3,0-0.4,0-0.4,0.3v3.8v3.8v3.7c0,0,0,0,0,0c0,0,0,0,0,0.1c0,4,3,6.7,7.1,6.7
			C279.7,636.7,282.7,633.7,282.6,629.9"/>
		<path class="st9" d="M447.3,627.6l-2.2-6l-2.2,6H447.3z M447.8,629h-5.4l-2.4,6.6c-0.2,0.4-0.2,0.4-0.6,0.4h-1.2
			c-0.2,0-0.4,0-0.4-0.2l0.1-0.4l6.5-16.8c0.1-0.3,0.2-0.4,0.5-0.4h1.1c0.2,0,0.2,0,0.4,0.3l6.6,16.8c0,0.1,0.1,0.3,0.1,0.4
			c0,0.2-0.1,0.2-0.4,0.2H451c-0.4,0-0.5,0-0.6-0.4L447.8,629z"/>
		<path class="st9" d="M462.1,623.1l-4.1,12.5c-0.1,0.4-0.1,0.4-0.5,0.4c-0.8,0-0.9,0-1.1-0.4l-4.9-16.6c-0.1-0.3-0.1-0.4-0.1-0.4
			c0-0.2,0.2-0.3,0.4-0.3h1.6c0.4,0,0.5,0,0.6,0.5l3.5,12.8l4.2-12.7c0.2-0.5,0.2-0.6,0.4-0.6h0.6c0.2,0,0.2,0.1,0.3,0.5l4.3,12.9
			l3.6-12.9c0.1-0.4,0.2-0.5,0.5-0.5h1.3c0.1,0,0.3,0,0.3,0.3c0,0.1,0,0.1-0.1,0.5l-4.9,16.6c-0.1,0.3-0.2,0.4-0.4,0.4h-0.7
			c-0.2,0-0.3-0.1-0.4-0.4L462.1,623.1z"/>
		<path class="st9" d="M486.3,621.6c-1.1-1.6-2.7-2.2-4.1-2.2c-1.6,0-3.3,0.9-4.3,2.4c-0.7,1-1.4,2.7-1.4,5.3c0,5.4,2.8,7.8,5.7,7.8
			c1.7,0,3.3-0.9,4.4-2.5c1-1.6,1.3-3.5,1.3-5.4C487.7,625,487.4,623.1,486.3,621.6 M484.3,636.1c0.2,0.7,0.5,1.7,1.8,2.7
			c0.8,0.6,2.2,1.5,4.3,2c0.7,0.2,0.9,0.2,0.9,0.6c0,0.1,0,0.5-0.6,0.5c-0.4,0-2-0.2-3.4-0.7c-2.1-0.7-4.7-2.1-6-4.9
			c-4.8-0.5-7.4-4.3-7.4-9.1c0-5.6,3.4-9.4,8.2-9.4c5.2,0,8.3,4.1,8.3,9.3C490.4,631.8,487.9,635.2,484.3,636.1L484.3,636.1z"/>
		<path class="st9" d="M500.8,627.6l-2.2-6l-2.2,6H500.8z M501.4,629H496l-2.4,6.6c-0.2,0.4-0.2,0.4-0.6,0.4h-1.2
			c-0.2,0-0.4,0-0.4-0.2l0.1-0.4l6.5-16.8c0.1-0.3,0.2-0.4,0.5-0.4h1.1c0.2,0,0.2,0,0.3,0.3l6.6,16.8c0,0.1,0.1,0.3,0.1,0.4
			c0,0.2-0.2,0.2-0.4,0.2h-1.7c-0.4,0-0.5,0-0.6-0.4L501.4,629z"/>
		<path class="st9" d="M511.2,627.5v8c0,0.5-0.2,0.5-0.5,0.5h-1.4c-0.4,0-0.5,0-0.5-0.5v-16.8c0-0.4,0.1-0.6,0.5-0.6h8.7
			c0.4,0,0.5,0,0.5,0.3c0,0.4,0,0.9,0,1c0,0.2,0,0.4-0.5,0.3h-6.7v6.1h5.6c0.4,0,0.5,0,0.5,0.4c0,0.3,0,0.8,0,0.9
			c0,0.3-0.2,0.3-0.5,0.3H511.2z"/>
		<path class="st9" d="M379.3,618.4l-3.2,8.4l-3.6-8.1c-0.1-0.5-0.2-0.5-0.6-0.5h-1.6c-0.2,0-0.4,0.1-0.4,0.3c0,0.1,0,0.1,0.1,0.4
			l5.1,11.9c0.2,0.4,0.3,0.4,1.1,0.4c0.4,0,0.4,0,0.5-0.4l4.5-12.3c0.1-0.2-0.1-0.4-0.3-0.4h-1.2
			C379.5,618.3,379.4,618.3,379.3,618.4"/>
	</g>
</g>
<g id="Layer_2">
</g>
</svg>
